<svg xmlns="http://www.w3.org/2000/svg" width="132.892" height="161.901" viewBox="0 0 132.892 161.901">
  <g id="quality" transform="translate(-7.5 -7.5)">
    <circle id="Ellipse_31" data-name="Ellipse 31" cx="48.247" cy="48.247" r="48.247" transform="translate(24.827 24.827)" fill="none" stroke="#000" stroke-miterlimit="10" stroke-width="5"/>
    <circle id="Ellipse_32" data-name="Ellipse 32" cx="63.074" cy="63.074" r="63.074" transform="translate(10 10)" fill="none" stroke="#000" stroke-miterlimit="10" stroke-width="5"/>
    <path id="Path_16" data-name="Path 16" d="M643.286,490.09s-20.632,38.319-18.177,39.3,30.939-18.988,30.455-16.029,1.8,22.591,3.437,21.77,14.9-32.083,14.9-32.083" transform="translate(-613.359 -368.77)" fill="#000501" stroke="#000" stroke-miterlimit="10" stroke-width="5"/>
    <path id="Path_17" data-name="Path 17" d="M891.963,489.15s22.694,37.139,20.3,38.248S880.329,510.129,881,513.046s-.561,22.655-2.244,21.928-16.632-31.221-16.632-31.221" transform="translate(-774.527 -368.131)" fill="#000501" stroke="#000" stroke-miterlimit="10" stroke-width="5"/>
    <path id="Path_18" data-name="Path 18" d="M748.842,238.294l8.848,17.927a1.491,1.491,0,0,0,1.125.817l19.8,2.885a1.5,1.5,0,0,1,.83,2.565l-14.323,13.961a1.494,1.494,0,0,0-.43,1.324l3.379,19.715a1.5,1.5,0,0,1-2.17,1.577l-17.705-9.3a1.484,1.484,0,0,0-1.391,0l-17.706,9.3a1.5,1.5,0,0,1-2.18-1.587l3.379-19.716a1.494,1.494,0,0,0-.43-1.324l-14.323-13.961a1.5,1.5,0,0,1,.83-2.565l19.8-2.885a1.491,1.491,0,0,0,1.125-.817l8.858-17.917a1.5,1.5,0,0,1,2.693,0Z" transform="translate(-674.624 -197.121)" fill="none" stroke="#000" stroke-miterlimit="10" stroke-width="5"/>
  </g>
</svg>
