<svg id="Layer_1" data-name="Layer 1" xmlns="http://www.w3.org/2000/svg" viewBox="0 0 419 509.31"><defs><style>.cls-1{fill:#fff;}.cls-1,.cls-2{stroke:#000;stroke-miterlimit:10;stroke-width:20px;}.cls-2{fill:none;}</style></defs><circle class="cls-1" cx="206.75" cy="206.75" r="150.5"/><circle class="cls-2" cx="206.75" cy="206.75" r="196.75"/><path class="cls-2" d="M682.24,490.09s-64.36,119.53-56.7,122.59,96.51-59.23,95-50,5.62,70.47,10.72,67.91,46.47-100.08,46.47-100.08" transform="translate(-610.08 -132.84)"/><path class="cls-2" d="M955.21,489.15S1026,605,1018.53,608.46,918.92,554.59,921,563.69s-1.75,70.67-7,68.4-51.88-97.39-51.88-97.39" transform="translate(-610.08 -132.84)"/><path class="cls-2" d="M820.4,240.08,848,296a4.65,4.65,0,0,0,3.51,2.55l61.75,9a4.67,4.67,0,0,1,2.59,8l-44.68,43.55a4.66,4.66,0,0,0-1.34,4.13l10.54,61.5a4.67,4.67,0,0,1-6.77,4.92l-55.23-29a4.63,4.63,0,0,0-4.34,0l-55.23,29A4.67,4.67,0,0,1,752,424.7l10.54-61.5a4.66,4.66,0,0,0-1.34-4.13l-44.68-43.55a4.67,4.67,0,0,1,2.59-8l61.75-9a4.65,4.65,0,0,0,3.51-2.55L812,240.08A4.67,4.67,0,0,1,820.4,240.08Z" transform="translate(-610.08 -132.84)"/></svg>