<svg xmlns="http://www.w3.org/2000/svg" width="108.872" height="134.614" viewBox="0 0 108.872 134.614">
  <g id="service" transform="translate(-3.401 -2.618)">
    <path id="Path_6" data-name="Path 6" d="M55.81,449.283,45.922,447.4l-6.562,7.549,3.326,9.432,9.888,1.885,6.562-7.549Z" transform="translate(-22.316 -342.964)" fill="#fff" stroke="#000" stroke-miterlimit="10" stroke-width="5"/>
    <path id="Path_7" data-name="Path 7" d="M692.986,471.708q-.25-.07-.5-.132a20.855,20.855,0,1,0,12.226,8.575" transform="translate(-660.484 -377.936)" fill="none" stroke="#000" stroke-miterlimit="10" stroke-width="5"/>
    <line id="Line_112" data-name="Line 112" x1="42.644" y2="62.321" transform="translate(43.167 42.115)" fill="none" stroke="#000" stroke-miterlimit="10" stroke-width="5"/>
    <line id="Line_113" data-name="Line 113" y1="62.319" x2="42.644" transform="translate(30.274 32.834)" fill="none" stroke="#000" stroke-miterlimit="10" stroke-width="5"/>
    <path id="Path_8" data-name="Path 8" d="M956.245,98.616s-5.7-10.848-5.422-11.517a45.893,45.893,0,0,1,3.789-5.016c.522-.509,10.336-11.774,12.9-11.223a29.685,29.685,0,0,1,5.369,1.957.731.731,0,0,1,.281,1.1c-1.468,1.975-5.544,7.46-6.819,9.312a.959.959,0,0,0,.189,1.29L976,92.172a1.975,1.975,0,0,0,2.931-.507l5.823-9.54a.733.733,0,0,1,.972-.263c1.176.636,3.651,2.209,4.151,4.388a.659.659,0,0,1,0,.294c-.331,1.727-3.594,18.009-8.7,19.732a.726.726,0,0,1-.206.035l-12.64.937" transform="translate(-884.541 -63.586)" fill="none" stroke="#000" stroke-miterlimit="10" stroke-width="5"/>
    <path id="Path_9" data-name="Path 9" d="M1080.17,190.87" transform="translate(-984.38 -158.321)" fill="none" stroke="#000" stroke-miterlimit="10" stroke-width="5"/>
    <path id="Path_10" data-name="Path 10" d="M1030.67,226.87" transform="translate(-945.741 -186.422)" fill="none" stroke="#000" stroke-miterlimit="10" stroke-width="5"/>
    <path id="Path_11" data-name="Path 11" d="M980.967,464.353s14.123.194,14.648.729a47.3,47.3,0,0,1,3.271,5.591c.276.7,7.113,14.481,5.577,16.712a31.472,31.472,0,0,1-3.984,4.333.753.753,0,0,1-1.159-.169c-1.295-2.177-4.9-8.223-6.163-10.17a.99.99,0,0,0-1.3-.331l-11.025,5.977a2.038,2.038,0,0,0-.676,2.988l6.773,9.314a.755.755,0,0,1-.134,1.029c-1.071.867-3.546,2.6-5.825,2.21a.7.7,0,0,1-.281-.114c-1.51-1-15.71-10.532-15.332-16.074a.771.771,0,0,1,.046-.219l3.9-13.212" transform="translate(-894.75 -372.257)" fill="none" stroke="#000" stroke-miterlimit="10" stroke-width="5"/>
    <line id="Line_114" data-name="Line 114" x2="20.317" y2="26.059" transform="translate(68.39 67.788)" fill="none" stroke="#000" stroke-miterlimit="10" stroke-width="5"/>
    <line id="Line_115" data-name="Line 115" x2="16.649" y2="21.86" transform="translate(41.571 31.95)" fill="none" stroke="#000" stroke-miterlimit="10" stroke-width="5"/>
    <line id="Line_116" data-name="Line 116" x1="20.769" y1="27.275" transform="translate(28.317 41.551)" fill="none" stroke="#000" stroke-miterlimit="10" stroke-width="5"/>
    <line id="Line_117" data-name="Line 117" x1="17.423" y1="21.978" transform="translate(58.029 81.473)" fill="none" stroke="#000" stroke-miterlimit="10" stroke-width="5"/>
    <path id="Path_12" data-name="Path 12" d="M694.054,103.418l-2.175-.4-11.386,1.309a47.871,47.871,0,0,1-3.677-5.332c-.329-.674-8.166-13.924-6.8-16.256a30.259,30.259,0,0,1,3.653-4.608.748.748,0,0,1,1.167.081c1.453,2.076,5.485,7.837,6.9,9.687a.99.99,0,0,0,1.316.233L693.6,81.353a2.038,2.038,0,0,0,.454-3.03l-7.445-8.776a.75.75,0,0,1,.059-1.036c1-.943,3.342-2.852,5.645-2.633a.741.741,0,0,1,.287.094c1.58.878,16.456,9.349,16.48,14.9a.778.778,0,0,1-.031.219L706.269,94.8" transform="translate(-664.091 -60.74)" fill="none" stroke="#000" stroke-miterlimit="10" stroke-width="5"/>
    <path id="Path_13" data-name="Path 13" d="M816.66,131.13" transform="translate(-778.687 -111.689)" fill="none" stroke="#000" stroke-miterlimit="10" stroke-width="5"/>
    <path id="Path_14" data-name="Path 14" d="M832.15,190.34" transform="translate(-790.778 -157.907)" fill="none" stroke="#000" stroke-miterlimit="10" stroke-width="5"/>
  </g>
</svg>
